#!OML:ASF E:\inclinewalkrobotboard\Project 1\Capture day 1\Session 1\subject1.ASF
:FULLY-SPECIFIED
:DEGREES
1
root 6.88553 16.5813 33.9583 -170.899 1.5718 179.806
lowerback -10.0536 1.18094 -6.4702
upperback 0.447718 2.3319 0.763278
thorax 5.83648 0.95097 4.79791
lowerneck -9.3191 0.401471 -3.05122
upperneck 23.4341 -1.24775 4.45833
head 8.88071 -0.90262 1.82603
rclavicle -1.16165e-015 -5.26779e-015
rhumerus -41.5684 -31.6805 -61.9631
rradius 24.7605
rwrist 23.8336
rhand -12.5697 -49.692
rfingers 7.12502
rthumb 13.5079 -79.2339
lclavicle -1.16165e-015 -5.26779e-015
lhumerus -28.75 10.6397 76.9744
lradius 22.2753
lwrist -28.9875
lhand -27.549 -16.9146
lfingers 7.12502
lthumb -0.95034 13.063
rfemur -5.22373 4.04972 19.4442
rtibia 9.61772
rfoot -13.8586 -3.92855
rtoes -22.4091
lfemur -5.5828 -8.47314 -20.3706
ltibia 8.58224
lfoot -14.8591 -2.4512
ltoes -30.5969
2
root 6.8842 16.5836 33.9603 -170.903 1.64077 179.851
lowerback -10.0908 1.14797 -6.43993
upperback 0.458591 2.28251 0.832267
thorax 5.87369 0.924453 4.84895
lowerneck -9.44792 0.380786 -3.16404
upperneck 23.6197 -1.26696 4.42135
head 8.9699 -0.929528 1.83166
rclavicle 2.39536e-014 -4.02539e-015
rhumerus -41.3449 -31.4668 -62.4348
rradius 24.6779
rwrist 23.9705
rhand -7.44067 -48.6989
rfingers 7.12502
rthumb 18.447 -77.8442
lclavicle 2.39536e-014 -4.02539e-015
lhumerus -28.8748 9.6603 77.927
lradius 22.7218
lwrist -27.6409
lhand -24.8027 -17.4945
lfingers 7.12502
lthumb 1.70214 12.4784
rfemur -5.2639 3.925 19.5139
rtibia 9.66227
rfoot -13.6983 -4.0907
rtoes -24.6242
lfemur -5.56729 -8.49893 -20.3205
ltibia 8.56821
lfoot -14.8786 -2.3803
ltoes -31.2941
3
root 6.88437 16.5848 33.9649 -170.893 1.6648 179.898
lowerback -10.09 1.11306 -6.4176
upperback 0.456621 2.22978 0.884214
thorax 5.87666 0.898193 4.88403
lowerneck -9.16045 0.322401 -3.56556
upperneck 23.307 -1.34705 4.80417
head 8.81436 -0.962205 2.02019
rclavicle 1.22687e-014 -9.93923e-015
rhumerus -41.1872 -31.2189 -62.9672
rradius 24.6167
rwrist 23.6051
rhand -3.11084 -48.3157
rfingers 7.12502
rthumb 22.6076 -77.0118
lclavicle 1.22687e-014 -9.93923e-015
lhumerus -28.9223 8.91024 78.7449
lradius 22.9168
lwrist -26.4218
lhand -21.4728 -17.0802
lfingers 7.12502
lthumb 4.91786 12.8427
rfemur -5.32864 3.69703 19.576
rtibia 9.70506
rfoot -13.5414 -4.11516
rtoes -26.5793
lfemur -5.59908 -8.51695 -20.2543
ltibia 8.61439
lfoot -14.8961 -2.32616
ltoes -31.373
4
root 6.88451 16.5846 33.9677 -170.872 1.64442 179.923
lowerback -10.1078 1.0714 -6.40066
upperback 0.447455 2.17177 0.912339
thorax 5.884 0.869777 4.8967
lowerneck -9.38821 0.350121 -3.45278
upperneck 23.4699 -1.29734 4.66198
head 8.90996 -0.941311 1.9592
rclavicle 1.91082e-014 1.83876e-015
rhumerus -41.0969 -30.8407 -63.5914
rradius 24.5881
rwrist 22.9053
rhand -0.696082 -48.126
rfingers 7.12502
rthumb 24.9235 -76.5208
lclavicle 1.91082e-014 1.83876e-015
lhumerus -28.978 8.20452 79.4993
lradius 22.9805
lwrist -24.9387
lhand -18.1148 -16.742
lfingers 7.12502
lthumb 8.15952 13.0805
rfemur -5.36295 3.4413 19.6131
rtibia 9.70409
rfoot -13.4595 -4.1306
rtoes -28.3607
lfemur -5.63135 -8.55191 -20.2246
ltibia 8.61699
lfoot -14.905 -2.30881
ltoes -31.2308
5
root 6.88467 16.5844 33.969 -170.871 1.66329 179.971
lowerback -10.1288 1.05325 -6.34131
upperback 0.431736 2.1409 0.929002
thorax 5.88448 0.856742 4.8769
lowerneck -9.51494 0.389548 -3.30125
upperneck 23.5957 -1.24601 4.52749
head 8.97396 -0.918495 1.89365
rclavicle 2.09221e-014 -1.78906e-015
rhumerus -41.1238 -30.4046 -64.2175
rradius 24.5791
rwrist 22.4399
rhand 0.434498 -47.5697
rfingers 7.12502
rthumb 26.0065 -75.81
lclavicle 2.09221e-014 -1.78906e-015
lhumerus -29.0831 7.58014 80.1472
lradius 22.9048
lwrist -23.7189
lhand -15.5544 -17.8648
lfingers 7.12502
lthumb 10.63 11.8463
rfemur -5.41772 3.13688 19.7034
rtibia 9.7142
rfoot -13.6056 -4.26092
rtoes -29.5156
lfemur -5.62912 -8.45311 -20.1427
ltibia 8.57515
lfoot -14.8168 -2.31684
ltoes -31.2249
6
root 6.885 16.5839 33.9706 -170.888 1.71481 180.116
lowerback -10.1272 1.08264 -6.1933
upperback 0.408481 2.15974 0.963478
thorax 5.85994 0.871752 4.83166
lowerneck -9.55811 0.411089 -3.14139
upperneck 23.7004 -1.2417 4.44617
head 9.01742 -0.914605 1.83934
rclavicle -6.05672e-015 2.43511e-015
rhumerus -41.3576 -30.4713 -64.4663
rradius 24.4213
rwrist 22.7201
rhand 0.876653 -46.5766
rfingers 7.12502
rthumb 26.4298 -74.754
lclavicle -6.05672e-015 2.43511e-015
lhumerus -29.1621 7.26507 80.6213
lradius 22.5895
lwrist -23.5365
lhand -13.9668 -19.1686
lfingers 7.12502
lthumb 12.1611 10.4579
rfemur -5.51201 2.69005 19.931
rtibia 9.8121
rfoot -13.9643 -4.41972
rtoes -30.1962
lfemur -5.63782 -8.00771 -19.9359
ltibia 8.61619
lfoot -14.5892 -2.4868
ltoes -31.3659
7
root 6.88481 16.5837 33.9695 -170.927 1.76983 180.233
lowerback -10.1268 1.13031 -6.07613
upperback 0.402893 2.20699 0.994959
thorax 5.85041 0.898595 4.80515
lowerneck -9.53087 0.384385 -3.08408
upperneck 23.707 -1.31527 4.51684
head 9.01796 -0.939433 1.84574
rclavicle 1.503e-014 4.37326e-015
rhumerus -41.7405 -31.0025 -64.3476
rradius 24.0967
rwrist 23.14
rhand 0.895147 -45.6896
rfingers 7.12502
rthumb 26.4475 -73.8643
lclavicle 1.503e-014 4.37326e-015
lhumerus -29.1719 7.58084 80.8498
lradius 21.9834
lwrist -24.5757
lhand -13.0774 -20.252
lfingers 7.12502
lthumb 13.0186 9.32179
rfemur -5.47987 2.68534 20.0794
rtibia 9.81965
rfoot -14.2059 -4.33696
rtoes -28.2875
lfemur -5.57869 -7.81642 -19.7873
ltibia 8.62106
lfoot -14.5005 -2.52015
ltoes -31.4617
8
root 6.88499 16.5837 33.9692 -170.936 1.81449 180.253
lowerback -10.1316 1.15046 -6.07572
upperback 0.396402 2.23297 1.01391
thorax 5.84224 0.911662 4.8287
lowerneck -9.60187 0.378594 -3.06818
upperneck 23.7517 -1.35362 4.61501
head 9.04894 -0.946043 1.87297
rclavicle 1.47908e-014 6.11263e-015
rhumerus -42.1345 -31.3121 -64.3216
rradius 23.8567
rwrist 22.9439
rhand 0.5121 -45.311
rfingers 7.12502
rthumb 26.0808 -73.5404
lclavicle 1.47908e-014 6.11263e-015
lhumerus -29.2295 8.26811 80.9384
lradius 21.3486
lwrist -26.094
lhand -12.8121 -21.0093
lfingers 7.12502
lthumb 13.2743 8.54803
rfemur -5.48656 2.67826 20.1031
rtibia 9.80619
rfoot -14.1315 -4.32486
rtoes -28.9008
lfemur -5.55773 -7.81156 -19.7702
ltibia 8.60206
lfoot -14.5178 -2.49554
ltoes -31.5522
9
root 6.88534 16.5832 33.9724 -170.879 1.83639 180.215
lowerback -10.1521 1.14858 -6.13854
upperback 0.372594 2.23949 1.01775
thorax 5.82546 0.914553 4.86953
lowerneck -9.73407 0.384859 -3.05636
upperneck 23.852 -1.3751 4.70323
head 9.11004 -0.946032 1.89978
rclavicle -2.28913e-015 -1.3418e-015
rhumerus -42.5414 -31.3454 -64.4704
rradius 23.805
rwrist 22.4676
rhand -0.437363 -45.0057
rfingers 7.12502
rthumb 25.1714 -73.366
lclavicle -2.28913e-015 -1.3418e-015
lhumerus -29.4026 8.8365 81.0472
lradius 20.9777
lwrist -27.1178
lhand -12.8444 -21.1692
lfingers 7.12502
lthumb 13.2432 8.39011
rfemur -5.59933 2.66965 20.0452
rtibia 9.83535
rfoot -14.1449 -4.32766
rtoes -28.9744
lfemur -5.6634 -7.79508 -19.8095
ltibia 8.63719
lfoot -14.5155 -2.4741
ltoes -31.5838
10
root 6.88584 16.5837 33.9738 -170.853 1.90156 180.178
lowerback -10.1786 1.16137 -6.18509
upperback 0.368668 2.26416 1.01706
thorax 5.83153 0.925288 4.89963
lowerneck -9.73404 0.333246 -3.18726
upperneck 23.8825 -1.48034 4.89405
head 9.12678 -0.990519 1.97645
rclavicle -1.17252e-014 1.14053e-014
rhumerus -42.9747 -31.5246 -64.5005
rradius 23.7145
rwrist 22.1322
rhand -1.74161 -44.3732
rfingers 7.12502
rthumb 23.9212 -72.9032
lclavicle -1.17252e-014 1.14053e-014
lhumerus -29.5929 9.53471 81.084
lradius 20.632
lwrist -27.6916
lhand -13.0336 -21.1124
lfingers 7.12502
lthumb 13.0608 8.45868
rfemur -5.67027 2.68704 19.9849
rtibia 9.89501
rfoot -14.1595 -4.25956
rtoes -28.4783
lfemur -5.7197 -7.77826 -19.8562
ltibia 8.70399
lfoot -14.5289 -2.42036
ltoes -31.4291
11
root 6.88727 16.5845 33.9732 -170.87 1.95508 180.212
lowerback -10.1813 1.15302 -6.16185
upperback 0.387625 2.2481 1.05234
thorax 5.85461 0.915859 4.92228
lowerneck -9.58283 0.215947 -3.51742
upperneck 23.8385 -1.67088 5.18528
head 9.09501 -1.0866 2.11166
rclavicle -7.37988e-015 6.55989e-015
rhumerus -43.3757 -31.8978 -64.3531
rradius 23.4916
rwrist 22.0049
rhand -3.59066 -43.0738
rfingers 7.12502
rthumb 22.147 -71.8253
lclavicle -7.37988e-015 6.55989e-015
lhumerus -29.7824 10.4976 81.01
lradius 20.1553
lwrist -28.0655
lhand -13.7325 -21.0774
lfingers 7.12502
lthumb 12.387 8.53561
rfemur -5.67573 2.73883 20.0288
rtibia 9.98885
rfoot -14.2078 -4.18636
rtoes -27.7975
lfemur -5.70383 -7.75614 -19.8157
ltibia 8.73547
lfoot -14.5446 -2.40293
ltoes -31.2372
12
root 6.8885 16.5834 33.9734 -170.879 1.9757 180.27
lowerback -10.1733 1.13823 -6.08457
upperback 0.411023 2.21707 1.07202
thorax 5.88078 0.900661 4.89528
lowerneck -10.2156 0.477953 -3.05596
upperneck 23.8863 -1.2919 5.05976
head 9.21089 -0.852846 2.03402
rclavicle -4.13099e-016 -8.07563e-015
rhumerus -43.757 -32.2431 -64.229
rradius 23.253
rwrist 21.9554
rhand -5.90457 -41.1724
rfingers 7.12502
rthumb 19.9241 -70.171
lclavicle -4.13099e-016 -8.07563e-015
lhumerus -29.9915 11.2609 80.9352
lradius 19.7552
lwrist -27.9126
lhand -14.7318 -21.2183
lfingers 7.12502
lthumb 11.4234 8.45051
rfemur -5.70552 2.75123 20.105
rtibia 10.0932
rfoot -14.3337 -4.15002
rtoes -27.3644
lfemur -5.70066 -7.70612 -19.7395
ltibia 8.74908
lfoot -14.5578 -2.45015
ltoes -31.0557
13
root 6.89013 16.5821 33.9749 -170.877 2.02606 180.253
lowerback -10.163 1.1478 -6.07792
upperback 0.431031 2.22969 1.04667
thorax 5.89581 0.906081 4.86643
lowerneck -10.3784 0.483112 -2.94848
upperneck 23.9675 -1.31484 5.08935
head 9.27119 -0.848524 2.02462
rclavicle -1.49182e-014 7.1314e-015
rhumerus -44.145 -32.5701 -64.1114
rradius 22.9275
rwrist 21.7766
rhand -8.21629 -39.5172
rfingers 7.12502
rthumb 17.7007 -68.7315
lclavicle -1.49182e-014 7.1314e-015
lhumerus -30.2116 11.7661 80.878
lradius 19.4876
lwrist -27.3993
lhand -15.5223 -21.2645
lfingers 7.12502
lthumb 10.661 8.44502
rfemur -5.76679 2.75275 20.0857
rtibia 10.1953
rfoot -14.4282 -4.11402
rtoes -27.3381
lfemur -5.70586 -7.64553 -19.7482
ltibia 8.75933
lfoot -14.5913 -2.46829
ltoes -31.1815
